<?xml version="1.0" standalone="no"?><!DOCTYPE svg PUBLIC "-//W3C//DTD SVG 1.1//EN" "http://www.w3.org/Graphics/SVG/1.1/DTD/svg11.dtd">
<svg t="1740911471151" class="icon" viewBox="0 0 1024 1024" version="1.1" xmlns="http://www.w3.org/2000/svg" p-id="5331" id="mx_n_1740911471153" width="24" height="24" xmlns:xlink="http://www.w3.org/1999/xlink">
<path d="M679.834025 1019.751037c-25.493776 0-42.489627-16.995851-42.489627-42.489626v-165.709544c0-33.991701-8.497925-59.485477-29.742738-80.73029-12.746888-12.746888-16.995851-29.742739-8.497926-42.489627 8.497925-12.746888 21.244813-25.493776 33.991702-29.742738 123.219917-12.746888 237.941909-55.236515 237.941908-254.93776s-16.995851-93.477178-50.987551-131.717842c-12.746888-12.746888-12.746888-29.742739-8.497926-42.489627 12.746888-33.991701 12.746888-67.983402 4.248963-101.975103-21.244813 4.248963-55.236515 16.995851-110.473029 55.236514-8.497925 8.497925-21.244813 8.497925-33.991701 4.248963-89.228216-25.493776-186.954357-25.493776-276.182573 0-12.746888 0-25.493776 0-33.991701-4.248963C305.925311 144.46473 267.684647 131.717842 250.688797 127.46888c-8.497925 33.991701-4.248963 67.983402 4.248962 101.975103 4.248963 16.995851 0 33.991701-8.497925 42.489627-33.991701 33.991701-50.987552 80.73029-50.987552 131.717842 0 199.701245 114.721992 242.190871 237.941909 254.93776 16.995851 0 29.742739 12.746888 33.991701 29.742738 4.248963 16.995851 0 33.991701-8.497925 42.489627-21.244813 21.244813-29.742739 46.738589-29.742739 76.481328v165.709543c0 25.493776-16.995851 42.489627-42.489626 42.489627s-42.489627-16.995851-42.489627-42.489627v-72.232365c-127.46888 21.244813-182.705394-50.987552-220.946058-97.726141-16.995851-21.244813-29.742739-38.240664-46.738589-42.489627-21.244813-4.248963-38.240664-29.742739-29.742739-50.987552 4.248963-21.244813 29.742739-38.240664 50.987552-29.742738 42.489627 12.746888 67.983402 42.489627 93.477179 72.232365 33.991701 46.738589 63.73444 80.73029 152.962655 63.73444 0-29.742739 0-59.485477 12.746888-80.730291-118.970954-25.493776-246.439834-101.975104-246.439834-327.170124 0-63.73444 21.244813-123.219917 59.485477-169.958506-12.746888-55.236515-8.497925-114.721992 12.746888-165.709544 4.248963-12.746888 12.746888-21.244813 25.493776-25.493776 16.995851-4.248963 72.232365-12.746888 186.954357 59.485477 93.477178-21.244813 191.20332-21.244813 280.431535 0 110.473029-72.232365 169.958506-63.73444 186.954357-59.485477 12.746888 0 21.244813 12.746888 25.493776 25.493776 21.244813 55.236515 25.493776 110.473029 12.746888 165.709544 38.240664 46.738589 59.485477 106.224066 59.485477 169.958506 0 242.190871-144.46473 305.925311-246.439834 331.419087 8.497925 25.493776 12.746888 55.236515 12.746888 80.730291v161.46058c0 25.493776-16.995851 42.489627-42.489626 42.489627L679.834025 1019.751037z" fill="currentColor" p-id="5332"></path>
</svg>